<?xml version="1.0"?>
<svg width="953" height="186" xmlns="http://www.w3.org/2000/svg" xmlns:svg="http://www.w3.org/2000/svg" clip-rule="evenodd">
 <g>
  <title>Layer 1</title>
  <g id="svg_3"/>
  <g id="svg_5"/>
  <g id="svg_7"/>
  <g id="svg_9">
   <path id="svg_10" d="m61.5,128.5c0,-2 0,-4 0,-6c1.599,0.268 2.9324,-0.066 4,-1c0.9938,-9.486 1.3271,-19.152 1,-29c-9.6667,0 -19.3333,0 -29,0c-0.3271,9.848 0.0062,19.514 1,29c3.1248,0.979 6.4581,1.313 10,1c0,2 0,4 0,6c-4.3333,0 -8.6667,0 -13,0c-1.871,-0.359 -3.371,-1.359 -4.5,-3c-0.6667,-12.333 -0.6667,-24.667 0,-37c0.8333,-0.8333 1.6667,-1.6667 2.5,-2.5c12.3333,-0.6667 24.6667,-0.6667 37,0c0.8333,0.8333 1.6667,1.6667 2.5,2.5c0.6667,12 0.6667,24 0,36c-0.4652,1.431 -1.2986,2.597 -2.5,3.5c-2.9816,0.498 -5.9816,0.665 -9,0.5z" fill="#424242"/>
  </g>
  <g id="svg_11">
   <path id="svg_12" d="m239.5,131.5c0,-13.333 0,-26.667 0,-40c3,0 6,0 9,0c0,5.3333 0,10.667 0,16c2.235,0.295 4.235,-0.039 6,-1c2.392,-3.778 4.559,-7.7784 6.5,-12c3.298,-3.6646 7.465,-4.9979 12.5,-4c0,2.6667 0,5.3333 0,8c-2.403,-0.107 -4.236,0.893 -5.5,3c-1.636,3.106 -3.136,6.273 -4.5,9.5c3.453,6.406 6.787,12.906 10,19.5c-3.284,1.157 -6.618,1.324 -10,0.5c-2.88,-4.258 -5.38,-8.758 -7.5,-13.5c-1.789,-1.729 -3.956,-2.396 -6.5,-2c0,5.333 0,10.667 0,16c-3.333,0 -6.667,0 -10,0z" fill="#424242"/>
  </g>
  <g id="svg_13">
   <path id="svg_14" d="m154.5,129.5c0.333,0.667 0.667,1.333 1,2c-3.726,0.323 -7.393,-0.011 -11,-1c-1.247,-1.823 -1.914,-3.823 -2,-6c-5.011,-0.166 -10.011,0.001 -15,0.5c-1.516,1.897 -2.183,4.064 -2,6.5c-4.014,0.166 -8.014,-0.001 -12,-0.5c4.897,-12.856 9.897,-25.689 15,-38.5c4.215,-1.2977 8.382,-1.2977 12.5,0c5.003,12.177 9.503,24.51 13.5,37z" fill="#424242"/>
  </g>
  <g id="svg_15">
   <path id="svg_16" d="m156.5,131.5c-0.368,-3.033 0.298,-5.7 2,-8c0.996,0.086 1.829,-0.248 2.5,-1c0.484,-10.338 0.984,-20.672 1.5,-31c10.667,0 21.333,0 32,0c0,13.333 0,26.667 0,40c-3.333,0 -6.667,0 -10,0c0,-10.667 0,-21.333 0,-32c-4,0 -8,0 -12,0c-0.296,9.072 -1.129,18.072 -2.5,27c-3.127,5.686 -7.627,7.352 -13.5,5z" fill="#434343"/>
  </g>
  <g id="svg_17">
   <path id="svg_18" d="m234.5,91.5c-0.333,0 -0.667,0 -1,0c-10.333,0 -20.667,0 -31,0c0,13.333 0,26.667 0,40c-0.996,-13.49 -1.329,-27.156 -1,-41c11.179,-0.3279 22.179,0.0054 33,1z" fill="#9a9a9a"/>
  </g>
  <g id="svg_19">
   <path id="svg_20" d="m233.5,91.5c0,2.3333 0,4.6667 0,7c-7.187,-0.3245 -14.187,0.0088 -21,1c0,2.667 0,5.333 0,8c5.667,0 11.333,0 17,0c0,2.667 0,5.333 0,8c-5.667,0 -11.333,0 -17,0c0,2.667 0,5.333 0,8c7.333,0 14.667,0 22,0c0,2.667 0,5.333 0,8c-10.667,0 -21.333,0 -32,0c0,-13.333 0,-26.667 0,-40c10.333,0 20.667,0 31,0z" fill="#414141"/>
  </g>
  <g id="svg_21">
   <path id="svg_22" d="m254.5,106.5c-1.765,0.961 -3.765,1.295 -6,1c0,-5.333 0,-10.6667 0,-16c-3,0 -6,0 -9,0c0,13.333 0,26.667 0,40c-0.996,-13.49 -1.329,-27.156 -1,-41c3.667,0 7.333,0 11,0c0,5.3333 0,10.667 0,16c1.667,0 3.333,0 5,0z" fill="#7f7f7f"/>
  </g>
  <g id="svg_23">
   <path id="svg_24" d="m284.5,91.5c8,0 16,0 24,0c0,2.3333 0,4.6667 0,7c-6.522,-0.3235 -12.855,0.0098 -19,1c-0.617,0.1107 -1.117,0.444 -1.5,1c-0.831,7.688 -0.665,15.355 0.5,23c6.963,0.951 13.963,0.951 21,0c0.268,2.619 -0.065,5.119 -1,7.5c-9,0.667 -18,0.667 -27,0c-1.167,-1.167 -2.333,-2.333 -3.5,-3.5c-1.587,-9.592 -1.92,-19.258 -1,-29c1.057,-3.8907 3.557,-6.2241 7.5,-7z" fill="#444444"/>
  </g>
  <g id="svg_25">
   <path id="svg_26" d="m324.5,91.5c4.384,-0.3256 8.717,0.0078 13,1c5.071,12.883 9.738,25.883 14,39c-3.667,0 -7.333,0 -11,0c-0.342,-5.837 -3.509,-8.171 -9.5,-7c-5.991,-1.171 -9.158,1.163 -9.5,7c-3.667,0 -7.333,0 -11,0c4.466,-13.397 9.132,-26.73 14,-40z" fill="#424242"/>
  </g>
  <g id="svg_27">
   <path id="svg_28" d="m365.5,106.5c4.805,0.987 9.805,1.321 15,1c0,-5.333 0,-10.6667 0,-16c3.333,0 6.667,0 10,0c0,13.333 0,26.667 0,40c-3.333,0 -6.667,0 -10,0c0,-5.333 0,-10.667 0,-16c-5,0 -10,0 -15,0c0,5.333 0,10.667 0,16c-3.333,0 -6.667,0 -10,0c0,-13.333 0,-26.667 0,-40c3.333,0 6.667,0 10,0c0,5 0,10 0,15z" fill="#404040"/>
  </g>
  <g id="svg_29">
   <path id="svg_30" d="m437.5,123.5c0,5 0,10 0,15c-3,0 -6,0 -9,0c0.302,-2.559 -0.032,-4.893 -1,-7c-7.667,0 -15.333,0 -23,0c0,1.333 0,2.667 0,4c0,1.333 0,2.667 0,4c-3.333,0 -6.667,0 -10,0c0,-5.333 0,-10.667 0,-16c2.222,0.322 4.056,-0.345 5.5,-2c1.715,-9.917 2.549,-19.917 2.5,-30c10.333,0 20.667,0 31,0c0,10.667 0,21.333 0,32c1.333,0 2.667,0 4,0z" fill="#424242"/>
  </g>
  <g id="svg_31">
   <path id="svg_32" d="m468.5,91.5c-8.333,0 -16.667,0 -25,0c0,13.333 0,26.667 0,40c-0.996,-13.49 -1.329,-27.156 -1,-41c8.849,-0.3264 17.516,0.007 26,1z" fill="#727272"/>
  </g>
  <g id="svg_33">
   <path id="svg_34" d="m468.5,91.5c4.085,-0.0413 7.252,1.6254 9.5,5c0.667,5.667 0.667,11.333 0,17c-1.256,3.546 -3.756,5.546 -7.5,6c-6,0 -12,0 -18,0c0,4 0,8 0,12c-3,0 -6,0 -9,0c0,-13.333 0,-26.667 0,-40c8.333,0 16.667,0 25,0z" fill="#414141"/>
  </g>
  <g id="svg_35">
   <path id="svg_36" d="m612.5,94.5c8.007,-0.1664 16.007,0.0003 24,0.5c2.955,0.3917 5.122,1.8917 6.5,4.5c1.613,9.566 1.947,19.233 1,29c-1.167,3.833 -3.667,6.333 -7.5,7.5c-7.667,0.667 -15.333,0.667 -23,0c-3.083,-0.786 -5.249,-2.619 -6.5,-5.5c-0.667,-10 -0.667,-20 0,-30c1.36,-2.5226 3.193,-4.5226 5.5,-6z" fill="#838383"/>
  </g>
  <g id="svg_37">
   <path id="svg_38" d="m817.5,95.5c-11.333,0 -22.667,0 -34,0c0,2.3333 0,4.667 0,7c3.871,-0.315 7.538,0.018 11,1c-4,0 -8,0 -12,0c0,-3 0,-6 0,-9c11.845,-0.3283 23.512,0.0051 35,1z" fill="#b7b7b7"/>
  </g>
  <g id="svg_39">
   <path id="svg_40" d="m822.5,135.5c0,-13.333 0,-26.667 0,-40c3,0 6,0 9,0c-0.321,5.195 0.013,10.195 1,15c1.967,0.239 3.801,-0.094 5.5,-1c2.545,-5.261 5.712,-10.0942 9.5,-14.5c2.982,-0.498 5.982,-0.6646 9,-0.5c0,3 0,6 0,9c-1.788,-0.285 -3.455,0.048 -5,1c-1.685,3.37 -3.351,6.703 -5,10c2.804,6.94 6.137,13.607 10,20c-3.667,1.333 -7.333,1.333 -11,0c-2.299,-4.792 -4.799,-9.459 -7.5,-14c-1.699,-0.906 -3.533,-1.239 -5.5,-1c0,5.333 0,10.667 0,16c-3.333,0 -6.667,0 -10,0z" fill="#838383"/>
  </g>
  <g id="svg_41">
   <path id="svg_42" d="m485.5,94.5c3.333,0 6.667,0 10,0c-0.166,6.342 0,12.675 0.5,19c4.737,0.969 9.57,1.303 14.5,1c0,-6.333 0,-12.667 0,-19c3.333,0 6.667,0 10,0c0,13.333 0,26.667 0,40c-3.333,0 -6.667,0 -10,0c0,-4.333 0,-8.667 0,-13c-6.675,0.166 -13.342,0 -20,-0.5c-1.167,-1.167 -2.333,-2.333 -3.5,-3.5c-1.401,-7.915 -1.901,-15.915 -1.5,-24z" fill="#818181"/>
  </g>
  <g id="svg_43">
   <path id="svg_44" d="m538.5,103.5c-0.973,2.448 -1.306,5.115 -1,8c5.667,0 11.333,0 17,0c0,2.333 0,4.667 0,7c-5.526,-0.321 -10.86,0.012 -16,1c0,2.667 0,5.333 0,8c7,0 14,0 21,0c0,2.667 0,5.333 0,8c-10.667,0 -21.333,0 -32,0c0,-13.333 0,-26.667 0,-40c10.667,0 21.333,0 32,0c0,2.6667 0,5.333 0,8c-7,0 -14,0 -21,0z" fill="#818181"/>
  </g>
  <g id="svg_45">
   <path id="svg_46" d="m568.5,95.5c10.667,0 21.333,0 32,0c0,13.333 0,26.667 0,40c-3.333,0 -6.667,0 -10,0c0,-10.667 0,-21.333 0,-32c-4.333,0 -8.667,0 -13,0c0.103,9.768 -0.731,19.434 -2.5,29c-3.785,3.464 -8.285,4.798 -13.5,4c0,-3 0,-6 0,-9c1.644,0.214 3.144,-0.12 4.5,-1c0.812,-10.347 1.645,-20.68 2.5,-31z" fill="#828282"/>
  </g>
  <g id="svg_47">
   <path id="svg_48" d="m661.5,95.5c-3.667,0 -7.333,0 -11,0c0,13.333 0,26.667 0,40c-0.996,-13.49 -1.329,-27.156 -1,-41c4.202,-0.3168 8.202,0.0166 12,1z" fill="#bababa"/>
  </g>
  <g id="svg_49">
   <path id="svg_50" d="m661.5,95.5c3.147,6.961 6.813,13.627 11,20c4.026,-6.73 8.026,-13.397 12,-20c3.333,0 6.667,0 10,0c0,13.333 0,26.667 0,40c-3.333,0 -6.667,0 -10,0c0.166,-7.008 0,-14.008 -0.5,-21c-2.333,4 -4.667,8 -7,12c-3,1.333 -6,1.333 -9,0c-2.333,-4 -4.667,-8 -7,-12c-0.5,6.992 -0.666,13.992 -0.5,21c-3.333,0 -6.667,0 -10,0c0,-13.333 0,-26.667 0,-40c3.667,0 7.333,0 11,0z" fill="#818181"/>
  </g>
  <g id="svg_51">
   <path id="svg_52" d="m702.5,95.5c10.667,0 21.333,0 32,0c0,2.6667 0,5.333 0,8c-7.333,0 -14.667,0 -22,0c0,2.333 0,4.667 0,7c6.009,-0.166 12.009,0.001 18,0.5c2.602,0.883 4.769,2.383 6.5,4.5c0.667,4.667 0.667,9.333 0,14c-0.655,3.657 -2.822,5.491 -6.5,5.5c-9.327,0.5 -18.661,0.666 -28,0.5c0,-13.333 0,-26.667 0,-40z" fill="#818181"/>
  </g>
  <g id="svg_53">
   <path id="svg_54" d="m743.5,95.5c3.333,0 6.667,0 10,0c-0.166,8.007 0,16.007 0.5,24c4.121,-8.078 8.621,-15.911 13.5,-23.5c3.652,-0.4986 7.318,-0.6653 11,-0.5c0,13.333 0,26.667 0,40c-3.333,0 -6.667,0 -10,0c0.166,-8.007 0,-16.007 -0.5,-24c-4.626,7.752 -9.126,15.585 -13.5,23.5c-3.652,0.499 -7.318,0.665 -11,0.5c0,-13.333 0,-26.667 0,-40z" fill="#808080"/>
  </g>
  <g id="svg_55">
   <path id="svg_56" d="m817.5,95.5c0,2.6667 0,5.333 0,8c-4,0 -8,0 -12,0c0,10.667 0,21.333 0,32c-3.667,0 -7.333,0 -11,0c0,-10.667 0,-21.333 0,-32c-3.462,-0.982 -7.129,-1.315 -11,-1c0,-2.333 0,-4.6667 0,-7c11.333,0 22.667,0 34,0z" fill="#838383"/>
  </g>
  <g id="svg_57">
   <path id="svg_58" d="m832.5,110.5c-0.987,-4.805 -1.321,-9.805 -1,-15c-3,0 -6,0 -9,0c0,13.333 0,26.667 0,40c-0.996,-13.49 -1.329,-27.156 -1,-41c3.667,0 7.333,0 11,0c0,5.3333 0,10.667 0,16z" fill="#999999"/>
  </g>
  <g id="svg_59">
   <path id="svg_60" d="m872.5,118.5c3.745,-7.824 7.745,-15.491 12,-23c3.667,0 7.333,0 11,0c0,13.333 0,26.667 0,40c-3.333,0 -6.667,0 -10,0c0.166,-7.674 0,-15.341 -0.5,-23c-4.42,7.171 -8.586,14.504 -12.5,22c-3.607,0.989 -7.274,1.323 -11,1c0,-13.333 0,-26.667 0,-40c3,0 6,0 9,0c-0.331,8.028 0.002,16.028 1,24c0.607,-0.124 0.94,-0.457 1,-1z" fill="#818181"/>
  </g>
  <g id="svg_61">
   <path id="svg_62" d="m872.5,118.5c-0.06,0.543 -0.393,0.876 -1,1c-0.998,-7.972 -1.331,-15.972 -1,-24c-3,0 -6,0 -9,0c0,13.333 0,26.667 0,40c-0.996,-13.49 -1.329,-27.156 -1,-41c3.667,0 7.333,0 11,0c-0.326,8.184 0.008,16.184 1,24z" fill="#a8a8a8"/>
  </g>
  <g id="svg_63">
   <path id="svg_64" d="m913.5,110.5c4.805,0.987 9.805,1.321 15,1c0,-5.333 0,-10.667 0,-16c3.125,-0.9794 6.458,-1.3128 10,-1c0,13.667 0,27.333 0,41c-3.333,0 -6.667,0 -10,0c0,-5.333 0,-10.667 0,-16c-5,0 -10,0 -15,0c0,5.333 0,10.667 0,16c-3.333,0 -6.667,0 -10,0c0,-13.333 0,-26.667 0,-40c3.333,0 6.667,0 10,0c0,5 0,10 0,15z" fill="#818181"/>
  </g>
  <g id="svg_65">
   <path id="svg_66" d="m233.5,91.5c0.333,0 0.667,0 1,0c0,2.6667 0,5.3333 0,8c-7.333,0 -14.667,0 -22,0c6.813,-0.9912 13.813,-1.3245 21,-1c0,-2.3333 0,-4.6667 0,-7z" fill="#737373"/>
  </g>
  <g id="svg_67">
   <path id="svg_68" d="m284.5,91.5c8.15,-0.9927 16.483,-1.3261 25,-1c0,3 0,6 0,9c-6.667,0 -13.333,0 -20,0c6.145,-0.9902 12.478,-1.3235 19,-1c0,-2.3333 0,-4.6667 0,-7c-8,0 -16,0 -24,0z" fill="#7f7f7f"/>
  </g>
  <g id="svg_69">
   <path id="svg_70" d="m412.5,99.5c3.667,0 7.333,0 11,0c0,8 0,16 0,24c-5.011,0.166 -10.011,-0.001 -15,-0.5c0.829,-1.816 1.663,-3.649 2.5,-5.5c0.424,-6.015 0.924,-12.015 1.5,-18z" fill="#f8f8f8"/>
  </g>
  <g id="svg_71">
   <path id="svg_72" d="m453.5,99.5c4.679,-0.1658 9.345,0.0008 14,0.5c1.122,3.409 1.289,6.909 0.5,10.5c-0.383,0.556 -0.883,0.889 -1.5,1c-4.333,0 -8.667,0 -13,0c0,-4 0,-8 0,-12z" fill="#fafafa"/>
  </g>
  <g id="svg_73">
   <path id="svg_74" d="m19.5,101.5c2.7869,-0.977 5.7869,-1.31 9,-1c0.3016,2.559 -0.0318,4.893 -1,7c0,-2 0,-4 0,-6c-2.6667,0 -5.3333,0 -8,0z" fill="#6f6f6f"/>
  </g>
  <g id="svg_75">
   <path id="svg_76" d="m19.5,101.5c2.6667,0 5.3333,0 8,0c0,2 0,4 0,6c-1.6667,0 -3.3333,0 -5,0c0,10 0,20 0,30c9.5834,0.318 19.0834,-0.015 28.5,-1c0.4998,-9.661 0.6665,-19.328 0.5,-29c-3.6667,0 -7.3333,0 -11,0c0,-2.333 0,-4.667 0,-7c4.3461,-0.166 8.6794,0.001 13,0.5c1.8289,0.273 3.3289,1.107 4.5,2.5c0.6667,12.333 0.6667,24.667 0,37c-0.8333,0.833 -1.6667,1.667 -2.5,2.5c-12.3333,0.667 -24.6667,0.667 -37,0c-0.8333,-0.833 -1.6667,-1.667 -2.5,-2.5c-0.6667,-12.333 -0.6667,-24.667 0,-37c0.8159,-1.323 1.9826,-1.989 3.5,-2z" fill="#444444"/>
  </g>
  <g id="svg_77">
   <path id="svg_78" d="m618.5,102.5c4.93,-0.303 9.763,0.031 14.5,1c0.667,7.667 0.667,15.333 0,23c-0.5,0.5 -1,1 -1.5,1.5c-4.333,0.667 -8.667,0.667 -13,0c-0.5,-0.5 -1,-1 -1.5,-1.5c-0.667,-7.333 -0.667,-14.667 0,-22c0.717,-0.544 1.217,-1.211 1.5,-2z" fill="#fbfbfb"/>
  </g>
  <g id="svg_79">
   <path id="svg_80" d="m334.5,114.5c-0.652,1.225 -1.819,1.892 -3.5,2c-1.681,-0.108 -2.848,-0.775 -3.5,-2c0.66,-3.813 1.826,-7.479 3.5,-11c1.674,3.521 2.84,7.187 3.5,11z" fill="#f0f0f0"/>
  </g>
  <g id="svg_81">
   <path id="svg_82" d="m138.5,115.5c-2.448,0.973 -5.115,1.306 -8,1c2.567,-16.326 5.233,-16.6598 8,-1z" fill="#efefef"/>
  </g>
  <g id="svg_83">
   <path id="svg_84" d="m380.5,91.5c0,5.3333 0,10.667 0,16c-5.195,0.321 -10.195,-0.013 -15,-1c4.667,0 9.333,0 14,0c-0.321,-5.195 0.013,-10.1946 1,-15z" fill="#9f9f9f"/>
  </g>
  <g id="svg_85">
   <path id="svg_86" d="m538.5,103.5c0,2.333 0,4.667 0,7c5.667,0 11.333,0 17,0c0,3 0,6 0,9c-5.667,0 -11.333,0 -17,0c5.14,-0.988 10.474,-1.321 16,-1c0,-2.333 0,-4.667 0,-7c-5.667,0 -11.333,0 -17,0c-0.306,-2.885 0.027,-5.552 1,-8z" fill="#b4b4b4"/>
  </g>
  <g id="svg_87">
   <path id="svg_88" d="m928.5,95.5c0,5.333 0,10.667 0,16c-5.195,0.321 -10.195,-0.013 -15,-1c4.667,0 9.333,0 14,0c-0.321,-5.195 0.013,-10.195 1,-15z" fill="#bebebe"/>
  </g>
  <g id="svg_89">
   <path id="svg_90" d="m453.5,99.5c0,4 0,8 0,12c4.333,0 8.667,0 13,0c-4.47,0.986 -9.137,1.319 -14,1c-0.318,-4.532 0.015,-8.866 1,-13z" fill="#949494"/>
  </g>
  <g id="svg_91">
   <path id="svg_92" d="m138.5,115.5c0.543,0.06 0.876,0.393 1,1c-3.145,1.303 -6.145,1.303 -9,0c2.885,0.306 5.552,-0.027 8,-1z" fill="#9c9c9c"/>
  </g>
  <g id="svg_93">
   <path id="svg_94" d="m327.5,114.5c0.652,1.225 1.819,1.892 3.5,2c1.681,-0.108 2.848,-0.775 3.5,-2c0.904,0.709 1.237,1.709 1,3c-3,0 -6,0 -9,0c-0.237,-1.291 0.096,-2.291 1,-3z" fill="#a8a8a8"/>
  </g>
  <g id="svg_95">
   <path id="svg_96" d="m470.5,119.5c-5.475,0.989 -11.142,1.322 -17,1c0.315,3.871 -0.018,7.538 -1,11c0,-4 0,-8 0,-12c6,0 12,0 18,0z" fill="#9b9b9b"/>
  </g>
  <g id="svg_97">
   <path id="svg_98" d="m712.5,118.5c4.346,-0.166 8.679,0.001 13,0.5c2.244,2.376 2.577,5.043 1,8c-4.655,0.499 -9.321,0.666 -14,0.5c0,-3 0,-6 0,-9z" fill="#fafafa"/>
  </g>
  <g id="svg_99">
   <path id="svg_100" d="m38.5,121.5c3.6667,0 7.3333,0 11,0c0,2.667 0,5.333 0,8c-4.8633,0.319 -9.53,-0.014 -14,-1c4.3333,0 8.6667,0 13,0c0,-2 0,-4 0,-6c-3.5419,0.313 -6.8752,-0.021 -10,-1z" fill="#c2c2c2"/>
  </g>
  <g id="svg_101">
   <path id="svg_102" d="m65.5,121.5c-1.0676,0.934 -2.401,1.268 -4,1c0,2 0,4 0,6c-0.9682,-2.107 -1.3016,-4.441 -1,-7c1.6667,0 3.3333,0 5,0z" fill="#7e7e7e"/>
  </g>
  <g id="svg_103">
   <path id="svg_104" d="m158.5,123.5c-1.702,2.3 -2.368,4.967 -2,8c-0.333,0 -0.667,0 -1,0c-0.333,-0.667 -0.667,-1.333 -1,-2c0.961,-1.765 1.295,-3.765 1,-6c1,0 2,0 3,0z" fill="#7f7f7f"/>
  </g>
  <g id="svg_105">
   <path id="svg_106" d="m684.5,95.5c3.462,-0.9816 7.129,-1.315 11,-1c0.329,13.844 -0.004,27.51 -1,41c0,-13.333 0,-26.667 0,-40c-3.333,0 -6.667,0 -10,0z" fill="#ababab"/>
  </g>
  <g id="svg_107">
   <path id="svg_108" d="m884.5,95.5c3.798,-0.9834 7.798,-1.3168 12,-1c0.329,13.844 -0.004,27.51 -1,41c0,-13.333 0,-26.667 0,-40c-3.667,0 -7.333,0 -11,0z" fill="#b0b0b0"/>
  </g>
  <g id="svg_109">
   <path id="svg_110" d="m427.5,131.5c0,0.333 0,0.667 0,1c-7.333,0 -14.667,0 -22,0c0.237,1.291 -0.096,2.291 -1,3c0,-1.333 0,-2.667 0,-4c7.667,0 15.333,0 23,0z" fill="#cccccc"/>
  </g>
  <g id="svg_111">
   <path id="svg_112" d="m437.5,123.5c0.988,5.14 1.321,10.474 1,16c-3.667,0 -7.333,0 -11,0c0,-2.333 0,-4.667 0,-7c0,-0.333 0,-0.667 0,-1c0.968,2.107 1.302,4.441 1,7c3,0 6,0 9,0c0,-5 0,-10 0,-15z" fill="#858585"/>
  </g>
 </g>
</svg>