<?xml version="1.0" encoding="UTF-8"?>
<!DOCTYPE svg PUBLIC "-//W3C//DTD SVG 1.1//EN" "http://www.w3.org/Graphics/SVG/1.1/DTD/svg11.dtd">
<svg xmlns="http://www.w3.org/2000/svg" version="1.1" width="953px" height="186px" style="shape-rendering:geometricPrecision; text-rendering:geometricPrecision; image-rendering:optimizeQuality; fill-rule:evenodd; clip-rule:evenodd" xmlns:xlink="http://www.w3.org/1999/xlink">
<g><path style="opacity:1" fill="#fefefe" d="M -0.5,-0.5 C 103.833,-0.5 208.167,-0.5 312.5,-0.5C 315.145,5.72067 317.645,12.054 320,18.5C 322.579,20.3467 325.412,20.8467 328.5,20C 330.492,15.848 329.159,14.0146 324.5,14.5C 322.799,9.60875 321.465,4.60875 320.5,-0.5C 323.833,-0.5 327.167,-0.5 330.5,-0.5C 330.586,0.495904 330.252,1.32924 329.5,2C 331.281,4.4872 332.447,7.32053 333,10.5C 337.922,16.2807 343.422,16.9474 349.5,12.5C 352.021,8.57045 353.021,4.23712 352.5,-0.5C 354.5,-0.5 356.5,-0.5 358.5,-0.5C 358.937,1.07442 359.937,2.24109 361.5,3C 365.537,3.60669 369.537,3.44002 373.5,2.5C 373.5,3.83333 373.5,5.16667 373.5,6.5C 370.543,6.52288 368.043,7.52288 366,9.5C 365.667,9.16667 365.333,8.83333 365,8.5C 364.18,10.728 364.513,12.728 366,14.5C 368.473,13.8803 370.973,13.2136 373.5,12.5C 374.655,11.0495 376.155,10.0495 378,9.5C 379.316,6.31165 379.816,2.97832 379.5,-0.5C 570.5,-0.5 761.5,-0.5 952.5,-0.5C 952.5,61.5 952.5,123.5 952.5,185.5C 634.833,185.5 317.167,185.5 -0.5,185.5C -0.5,123.5 -0.5,61.5 -0.5,-0.5 Z"/></g>
<g><path style="opacity:1" fill="#ebebeb" d="M 312.5,-0.5 C 315.167,-0.5 317.833,-0.5 320.5,-0.5C 321.465,4.60875 322.799,9.60875 324.5,14.5C 329.159,14.0146 330.492,15.848 328.5,20C 325.412,20.8467 322.579,20.3467 320,18.5C 317.645,12.054 315.145,5.72067 312.5,-0.5 Z"/></g>
<g><path style="opacity:1" fill="#efefef" d="M 330.5,-0.5 C 337.833,-0.5 345.167,-0.5 352.5,-0.5C 353.021,4.23712 352.021,8.57045 349.5,12.5C 343.422,16.9474 337.922,16.2807 333,10.5C 332.447,7.32053 331.281,4.4872 329.5,2C 330.252,1.32924 330.586,0.495904 330.5,-0.5 Z"/></g>
<g><path style="opacity:1" fill="#ebebeb" d="M 358.5,-0.5 C 365.5,-0.5 372.5,-0.5 379.5,-0.5C 379.816,2.97832 379.316,6.31165 378,9.5C 376.155,10.0495 374.655,11.0495 373.5,12.5C 370.973,13.2136 368.473,13.8803 366,14.5C 364.513,12.728 364.18,10.728 365,8.5C 365.333,8.83333 365.667,9.16667 366,9.5C 368.043,7.52288 370.543,6.52288 373.5,6.5C 373.5,5.16667 373.5,3.83333 373.5,2.5C 369.537,3.44002 365.537,3.60669 361.5,3C 359.937,2.24109 358.937,1.07442 358.5,-0.5 Z"/></g>
<g><path style="opacity:1" fill="#424242" d="M 61.5,128.5 C 61.5,126.5 61.5,124.5 61.5,122.5C 63.099,122.768 64.4324,122.434 65.5,121.5C 66.4938,112.014 66.8271,102.348 66.5,92.5C 56.8333,92.5 47.1667,92.5 37.5,92.5C 37.1729,102.348 37.5062,112.014 38.5,121.5C 41.6248,122.479 44.9581,122.813 48.5,122.5C 48.5,124.5 48.5,126.5 48.5,128.5C 44.1667,128.5 39.8333,128.5 35.5,128.5C 33.629,128.141 32.129,127.141 31,125.5C 30.3333,113.167 30.3333,100.833 31,88.5C 31.8333,87.6667 32.6667,86.8333 33.5,86C 45.8333,85.3333 58.1667,85.3333 70.5,86C 71.3333,86.8333 72.1667,87.6667 73,88.5C 73.6667,100.5 73.6667,112.5 73,124.5C 72.5348,125.931 71.7014,127.097 70.5,128C 67.5184,128.498 64.5184,128.665 61.5,128.5 Z"/></g>
<g><path style="opacity:1" fill="#424242" d="M 239.5,131.5 C 239.5,118.167 239.5,104.833 239.5,91.5C 242.5,91.5 245.5,91.5 248.5,91.5C 248.5,96.8333 248.5,102.167 248.5,107.5C 250.735,107.795 252.735,107.461 254.5,106.5C 256.892,102.722 259.059,98.7216 261,94.5C 264.298,90.8354 268.465,89.5021 273.5,90.5C 273.5,93.1667 273.5,95.8333 273.5,98.5C 271.097,98.393 269.264,99.393 268,101.5C 266.364,104.606 264.864,107.773 263.5,111C 266.953,117.406 270.287,123.906 273.5,130.5C 270.216,131.657 266.882,131.824 263.5,131C 260.62,126.742 258.12,122.242 256,117.5C 254.211,115.771 252.044,115.104 249.5,115.5C 249.5,120.833 249.5,126.167 249.5,131.5C 246.167,131.5 242.833,131.5 239.5,131.5 Z"/></g>
<g><path style="opacity:1" fill="#424242" d="M 154.5,129.5 C 154.833,130.167 155.167,130.833 155.5,131.5C 151.774,131.823 148.107,131.489 144.5,130.5C 143.253,128.677 142.586,126.677 142.5,124.5C 137.489,124.334 132.489,124.501 127.5,125C 125.984,126.897 125.317,129.064 125.5,131.5C 121.486,131.666 117.486,131.499 113.5,131C 118.397,118.144 123.397,105.311 128.5,92.5C 132.715,91.2023 136.882,91.2023 141,92.5C 146.003,104.677 150.503,117.01 154.5,129.5 Z"/></g>
<g><path style="opacity:1" fill="#434343" d="M 156.5,131.5 C 156.132,128.467 156.798,125.8 158.5,123.5C 159.496,123.586 160.329,123.252 161,122.5C 161.484,112.162 161.984,101.828 162.5,91.5C 173.167,91.5 183.833,91.5 194.5,91.5C 194.5,104.833 194.5,118.167 194.5,131.5C 191.167,131.5 187.833,131.5 184.5,131.5C 184.5,120.833 184.5,110.167 184.5,99.5C 180.5,99.5 176.5,99.5 172.5,99.5C 172.204,108.572 171.371,117.572 170,126.5C 166.873,132.186 162.373,133.852 156.5,131.5 Z"/></g>
<g><path style="opacity:1" fill="#9a9a9a" d="M 234.5,91.5 C 234.167,91.5 233.833,91.5 233.5,91.5C 223.167,91.5 212.833,91.5 202.5,91.5C 202.5,104.833 202.5,118.167 202.5,131.5C 201.504,118.01 201.171,104.344 201.5,90.5C 212.679,90.1721 223.679,90.5054 234.5,91.5 Z"/></g>
<g><path style="opacity:1" fill="#414141" d="M 233.5,91.5 C 233.5,93.8333 233.5,96.1667 233.5,98.5C 226.313,98.1755 219.313,98.5088 212.5,99.5C 212.5,102.167 212.5,104.833 212.5,107.5C 218.167,107.5 223.833,107.5 229.5,107.5C 229.5,110.167 229.5,112.833 229.5,115.5C 223.833,115.5 218.167,115.5 212.5,115.5C 212.5,118.167 212.5,120.833 212.5,123.5C 219.833,123.5 227.167,123.5 234.5,123.5C 234.5,126.167 234.5,128.833 234.5,131.5C 223.833,131.5 213.167,131.5 202.5,131.5C 202.5,118.167 202.5,104.833 202.5,91.5C 212.833,91.5 223.167,91.5 233.5,91.5 Z"/></g>
<g><path style="opacity:1" fill="#7f7f7f" d="M 254.5,106.5 C 252.735,107.461 250.735,107.795 248.5,107.5C 248.5,102.167 248.5,96.8333 248.5,91.5C 245.5,91.5 242.5,91.5 239.5,91.5C 239.5,104.833 239.5,118.167 239.5,131.5C 238.504,118.01 238.171,104.344 238.5,90.5C 242.167,90.5 245.833,90.5 249.5,90.5C 249.5,95.8333 249.5,101.167 249.5,106.5C 251.167,106.5 252.833,106.5 254.5,106.5 Z"/></g>
<g><path style="opacity:1" fill="#444444" d="M 284.5,91.5 C 292.5,91.5 300.5,91.5 308.5,91.5C 308.5,93.8333 308.5,96.1667 308.5,98.5C 301.978,98.1765 295.645,98.5098 289.5,99.5C 288.883,99.6107 288.383,99.944 288,100.5C 287.169,108.188 287.335,115.855 288.5,123.5C 295.463,124.451 302.463,124.451 309.5,123.5C 309.768,126.119 309.435,128.619 308.5,131C 299.5,131.667 290.5,131.667 281.5,131C 280.333,129.833 279.167,128.667 278,127.5C 276.413,117.908 276.08,108.242 277,98.5C 278.057,94.6093 280.557,92.2759 284.5,91.5 Z"/></g>
<g><path style="opacity:1" fill="#424242" d="M 324.5,91.5 C 328.884,91.1744 333.217,91.5078 337.5,92.5C 342.571,105.383 347.238,118.383 351.5,131.5C 347.833,131.5 344.167,131.5 340.5,131.5C 340.158,125.663 336.991,123.329 331,124.5C 325.009,123.329 321.842,125.663 321.5,131.5C 317.833,131.5 314.167,131.5 310.5,131.5C 314.966,118.103 319.632,104.77 324.5,91.5 Z"/></g>
<g><path style="opacity:1" fill="#404040" d="M 365.5,106.5 C 370.305,107.487 375.305,107.821 380.5,107.5C 380.5,102.167 380.5,96.8333 380.5,91.5C 383.833,91.5 387.167,91.5 390.5,91.5C 390.5,104.833 390.5,118.167 390.5,131.5C 387.167,131.5 383.833,131.5 380.5,131.5C 380.5,126.167 380.5,120.833 380.5,115.5C 375.5,115.5 370.5,115.5 365.5,115.5C 365.5,120.833 365.5,126.167 365.5,131.5C 362.167,131.5 358.833,131.5 355.5,131.5C 355.5,118.167 355.5,104.833 355.5,91.5C 358.833,91.5 362.167,91.5 365.5,91.5C 365.5,96.5 365.5,101.5 365.5,106.5 Z"/></g>
<g><path style="opacity:1" fill="#424242" d="M 437.5,123.5 C 437.5,128.5 437.5,133.5 437.5,138.5C 434.5,138.5 431.5,138.5 428.5,138.5C 428.802,135.941 428.468,133.607 427.5,131.5C 419.833,131.5 412.167,131.5 404.5,131.5C 404.5,132.833 404.5,134.167 404.5,135.5C 404.5,136.833 404.5,138.167 404.5,139.5C 401.167,139.5 397.833,139.5 394.5,139.5C 394.5,134.167 394.5,128.833 394.5,123.5C 396.722,123.822 398.556,123.155 400,121.5C 401.715,111.583 402.549,101.583 402.5,91.5C 412.833,91.5 423.167,91.5 433.5,91.5C 433.5,102.167 433.5,112.833 433.5,123.5C 434.833,123.5 436.167,123.5 437.5,123.5 Z"/></g>
<g><path style="opacity:1" fill="#727272" d="M 468.5,91.5 C 460.167,91.5 451.833,91.5 443.5,91.5C 443.5,104.833 443.5,118.167 443.5,131.5C 442.504,118.01 442.171,104.344 442.5,90.5C 451.349,90.1736 460.016,90.507 468.5,91.5 Z"/></g>
<g><path style="opacity:1" fill="#414141" d="M 468.5,91.5 C 472.585,91.4587 475.752,93.1254 478,96.5C 478.667,102.167 478.667,107.833 478,113.5C 476.744,117.046 474.244,119.046 470.5,119.5C 464.5,119.5 458.5,119.5 452.5,119.5C 452.5,123.5 452.5,127.5 452.5,131.5C 449.5,131.5 446.5,131.5 443.5,131.5C 443.5,118.167 443.5,104.833 443.5,91.5C 451.833,91.5 460.167,91.5 468.5,91.5 Z"/></g>
<g><path style="opacity:1" fill="#838383" d="M 612.5,94.5 C 620.507,94.3336 628.507,94.5003 636.5,95C 639.455,95.3917 641.622,96.8917 643,99.5C 644.613,109.066 644.947,118.733 644,128.5C 642.833,132.333 640.333,134.833 636.5,136C 628.833,136.667 621.167,136.667 613.5,136C 610.417,135.214 608.251,133.381 607,130.5C 606.333,120.5 606.333,110.5 607,100.5C 608.36,97.9774 610.193,95.9774 612.5,94.5 Z"/></g>
<g><path style="opacity:1" fill="#b7b7b7" d="M 817.5,95.5 C 806.167,95.5 794.833,95.5 783.5,95.5C 783.5,97.8333 783.5,100.167 783.5,102.5C 787.371,102.185 791.038,102.518 794.5,103.5C 790.5,103.5 786.5,103.5 782.5,103.5C 782.5,100.5 782.5,97.5 782.5,94.5C 794.345,94.1717 806.012,94.5051 817.5,95.5 Z"/></g>
<g><path style="opacity:1" fill="#838383" d="M 822.5,135.5 C 822.5,122.167 822.5,108.833 822.5,95.5C 825.5,95.5 828.5,95.5 831.5,95.5C 831.179,100.695 831.513,105.695 832.5,110.5C 834.467,110.739 836.301,110.406 838,109.5C 840.545,104.239 843.712,99.4058 847.5,95C 850.482,94.502 853.482,94.3354 856.5,94.5C 856.5,97.5 856.5,100.5 856.5,103.5C 854.712,103.215 853.045,103.548 851.5,104.5C 849.815,107.87 848.149,111.203 846.5,114.5C 849.304,121.44 852.637,128.107 856.5,134.5C 852.833,135.833 849.167,135.833 845.5,134.5C 843.201,129.708 840.701,125.041 838,120.5C 836.301,119.594 834.467,119.261 832.5,119.5C 832.5,124.833 832.5,130.167 832.5,135.5C 829.167,135.5 825.833,135.5 822.5,135.5 Z"/></g>
<g><path style="opacity:1" fill="#818181" d="M 485.5,94.5 C 488.833,94.5 492.167,94.5 495.5,94.5C 495.334,100.842 495.5,107.175 496,113.5C 500.737,114.469 505.57,114.803 510.5,114.5C 510.5,108.167 510.5,101.833 510.5,95.5C 513.833,95.5 517.167,95.5 520.5,95.5C 520.5,108.833 520.5,122.167 520.5,135.5C 517.167,135.5 513.833,135.5 510.5,135.5C 510.5,131.167 510.5,126.833 510.5,122.5C 503.825,122.666 497.158,122.5 490.5,122C 489.333,120.833 488.167,119.667 487,118.5C 485.599,110.585 485.099,102.585 485.5,94.5 Z"/></g>
<g><path style="opacity:1" fill="#818181" d="M 538.5,103.5 C 537.527,105.948 537.194,108.615 537.5,111.5C 543.167,111.5 548.833,111.5 554.5,111.5C 554.5,113.833 554.5,116.167 554.5,118.5C 548.974,118.179 543.64,118.512 538.5,119.5C 538.5,122.167 538.5,124.833 538.5,127.5C 545.5,127.5 552.5,127.5 559.5,127.5C 559.5,130.167 559.5,132.833 559.5,135.5C 548.833,135.5 538.167,135.5 527.5,135.5C 527.5,122.167 527.5,108.833 527.5,95.5C 538.167,95.5 548.833,95.5 559.5,95.5C 559.5,98.1667 559.5,100.833 559.5,103.5C 552.5,103.5 545.5,103.5 538.5,103.5 Z"/></g>
<g><path style="opacity:1" fill="#828282" d="M 568.5,95.5 C 579.167,95.5 589.833,95.5 600.5,95.5C 600.5,108.833 600.5,122.167 600.5,135.5C 597.167,135.5 593.833,135.5 590.5,135.5C 590.5,124.833 590.5,114.167 590.5,103.5C 586.167,103.5 581.833,103.5 577.5,103.5C 577.603,113.268 576.769,122.934 575,132.5C 571.215,135.964 566.715,137.298 561.5,136.5C 561.5,133.5 561.5,130.5 561.5,127.5C 563.144,127.714 564.644,127.38 566,126.5C 566.812,116.153 567.645,105.82 568.5,95.5 Z"/></g>
<g><path style="opacity:1" fill="#bababa" d="M 661.5,95.5 C 657.833,95.5 654.167,95.5 650.5,95.5C 650.5,108.833 650.5,122.167 650.5,135.5C 649.504,122.01 649.171,108.344 649.5,94.5C 653.702,94.1832 657.702,94.5166 661.5,95.5 Z"/></g>
<g><path style="opacity:1" fill="#818181" d="M 661.5,95.5 C 664.647,102.461 668.313,109.127 672.5,115.5C 676.526,108.77 680.526,102.103 684.5,95.5C 687.833,95.5 691.167,95.5 694.5,95.5C 694.5,108.833 694.5,122.167 694.5,135.5C 691.167,135.5 687.833,135.5 684.5,135.5C 684.666,128.492 684.5,121.492 684,114.5C 681.667,118.5 679.333,122.5 677,126.5C 674,127.833 671,127.833 668,126.5C 665.667,122.5 663.333,118.5 661,114.5C 660.5,121.492 660.334,128.492 660.5,135.5C 657.167,135.5 653.833,135.5 650.5,135.5C 650.5,122.167 650.5,108.833 650.5,95.5C 654.167,95.5 657.833,95.5 661.5,95.5 Z"/></g>
<g><path style="opacity:1" fill="#818181" d="M 702.5,95.5 C 713.167,95.5 723.833,95.5 734.5,95.5C 734.5,98.1667 734.5,100.833 734.5,103.5C 727.167,103.5 719.833,103.5 712.5,103.5C 712.5,105.833 712.5,108.167 712.5,110.5C 718.509,110.334 724.509,110.501 730.5,111C 733.102,111.883 735.269,113.383 737,115.5C 737.667,120.167 737.667,124.833 737,129.5C 736.345,133.157 734.178,134.991 730.5,135C 721.173,135.5 711.839,135.666 702.5,135.5C 702.5,122.167 702.5,108.833 702.5,95.5 Z"/></g>
<g><path style="opacity:1" fill="#808080" d="M 743.5,95.5 C 746.833,95.5 750.167,95.5 753.5,95.5C 753.334,103.507 753.5,111.507 754,119.5C 758.121,111.422 762.621,103.589 767.5,96C 771.152,95.5014 774.818,95.3347 778.5,95.5C 778.5,108.833 778.5,122.167 778.5,135.5C 775.167,135.5 771.833,135.5 768.5,135.5C 768.666,127.493 768.5,119.493 768,111.5C 763.374,119.252 758.874,127.085 754.5,135C 750.848,135.499 747.182,135.665 743.5,135.5C 743.5,122.167 743.5,108.833 743.5,95.5 Z"/></g>
<g><path style="opacity:1" fill="#838383" d="M 817.5,95.5 C 817.5,98.1667 817.5,100.833 817.5,103.5C 813.5,103.5 809.5,103.5 805.5,103.5C 805.5,114.167 805.5,124.833 805.5,135.5C 801.833,135.5 798.167,135.5 794.5,135.5C 794.5,124.833 794.5,114.167 794.5,103.5C 791.038,102.518 787.371,102.185 783.5,102.5C 783.5,100.167 783.5,97.8333 783.5,95.5C 794.833,95.5 806.167,95.5 817.5,95.5 Z"/></g>
<g><path style="opacity:1" fill="#999999" d="M 832.5,110.5 C 831.513,105.695 831.179,100.695 831.5,95.5C 828.5,95.5 825.5,95.5 822.5,95.5C 822.5,108.833 822.5,122.167 822.5,135.5C 821.504,122.01 821.171,108.344 821.5,94.5C 825.167,94.5 828.833,94.5 832.5,94.5C 832.5,99.8333 832.5,105.167 832.5,110.5 Z"/></g>
<g><path style="opacity:1" fill="#818181" d="M 872.5,118.5 C 876.245,110.676 880.245,103.009 884.5,95.5C 888.167,95.5 891.833,95.5 895.5,95.5C 895.5,108.833 895.5,122.167 895.5,135.5C 892.167,135.5 888.833,135.5 885.5,135.5C 885.666,127.826 885.5,120.159 885,112.5C 880.58,119.671 876.414,127.004 872.5,134.5C 868.893,135.489 865.226,135.823 861.5,135.5C 861.5,122.167 861.5,108.833 861.5,95.5C 864.5,95.5 867.5,95.5 870.5,95.5C 870.169,103.528 870.502,111.528 871.5,119.5C 872.107,119.376 872.44,119.043 872.5,118.5 Z"/></g>
<g><path style="opacity:1" fill="#a8a8a8" d="M 872.5,118.5 C 872.44,119.043 872.107,119.376 871.5,119.5C 870.502,111.528 870.169,103.528 870.5,95.5C 867.5,95.5 864.5,95.5 861.5,95.5C 861.5,108.833 861.5,122.167 861.5,135.5C 860.504,122.01 860.171,108.344 860.5,94.5C 864.167,94.5 867.833,94.5 871.5,94.5C 871.174,102.684 871.508,110.684 872.5,118.5 Z"/></g>
<g><path style="opacity:1" fill="#818181" d="M 913.5,110.5 C 918.305,111.487 923.305,111.821 928.5,111.5C 928.5,106.167 928.5,100.833 928.5,95.5C 931.625,94.5206 934.958,94.1872 938.5,94.5C 938.5,108.167 938.5,121.833 938.5,135.5C 935.167,135.5 931.833,135.5 928.5,135.5C 928.5,130.167 928.5,124.833 928.5,119.5C 923.5,119.5 918.5,119.5 913.5,119.5C 913.5,124.833 913.5,130.167 913.5,135.5C 910.167,135.5 906.833,135.5 903.5,135.5C 903.5,122.167 903.5,108.833 903.5,95.5C 906.833,95.5 910.167,95.5 913.5,95.5C 913.5,100.5 913.5,105.5 913.5,110.5 Z"/></g>
<g><path style="opacity:1" fill="#737373" d="M 233.5,91.5 C 233.833,91.5 234.167,91.5 234.5,91.5C 234.5,94.1667 234.5,96.8333 234.5,99.5C 227.167,99.5 219.833,99.5 212.5,99.5C 219.313,98.5088 226.313,98.1755 233.5,98.5C 233.5,96.1667 233.5,93.8333 233.5,91.5 Z"/></g>
<g><path style="opacity:1" fill="#7f7f7f" d="M 284.5,91.5 C 292.65,90.5073 300.983,90.1739 309.5,90.5C 309.5,93.5 309.5,96.5 309.5,99.5C 302.833,99.5 296.167,99.5 289.5,99.5C 295.645,98.5098 301.978,98.1765 308.5,98.5C 308.5,96.1667 308.5,93.8333 308.5,91.5C 300.5,91.5 292.5,91.5 284.5,91.5 Z"/></g>
<g><path style="opacity:1" fill="#f8f8f8" d="M 412.5,99.5 C 416.167,99.5 419.833,99.5 423.5,99.5C 423.5,107.5 423.5,115.5 423.5,123.5C 418.489,123.666 413.489,123.499 408.5,123C 409.329,121.184 410.163,119.351 411,117.5C 411.424,111.485 411.924,105.485 412.5,99.5 Z"/></g>
<g><path style="opacity:1" fill="#fafafa" d="M 453.5,99.5 C 458.179,99.3342 462.845,99.5008 467.5,100C 468.622,103.409 468.789,106.909 468,110.5C 467.617,111.056 467.117,111.389 466.5,111.5C 462.167,111.5 457.833,111.5 453.5,111.5C 453.5,107.5 453.5,103.5 453.5,99.5 Z"/></g>
<g><path style="opacity:1" fill="#6f6f6f" d="M 19.5,101.5 C 22.2869,100.523 25.2869,100.19 28.5,100.5C 28.8016,103.059 28.4682,105.393 27.5,107.5C 27.5,105.5 27.5,103.5 27.5,101.5C 24.8333,101.5 22.1667,101.5 19.5,101.5 Z"/></g>
<g><path style="opacity:1" fill="#444444" d="M 19.5,101.5 C 22.1667,101.5 24.8333,101.5 27.5,101.5C 27.5,103.5 27.5,105.5 27.5,107.5C 25.8333,107.5 24.1667,107.5 22.5,107.5C 22.5,117.5 22.5,127.5 22.5,137.5C 32.0834,137.818 41.5834,137.485 51,136.5C 51.4998,126.839 51.6665,117.172 51.5,107.5C 47.8333,107.5 44.1667,107.5 40.5,107.5C 40.5,105.167 40.5,102.833 40.5,100.5C 44.8461,100.334 49.1794,100.501 53.5,101C 55.3289,101.273 56.8289,102.107 58,103.5C 58.6667,115.833 58.6667,128.167 58,140.5C 57.1667,141.333 56.3333,142.167 55.5,143C 43.1667,143.667 30.8333,143.667 18.5,143C 17.6667,142.167 16.8333,141.333 16,140.5C 15.3333,128.167 15.3333,115.833 16,103.5C 16.8159,102.177 17.9826,101.511 19.5,101.5 Z"/></g>
<g><path style="opacity:1" fill="#fbfbfb" d="M 618.5,102.5 C 623.43,102.197 628.263,102.531 633,103.5C 633.667,111.167 633.667,118.833 633,126.5C 632.5,127 632,127.5 631.5,128C 627.167,128.667 622.833,128.667 618.5,128C 618,127.5 617.5,127 617,126.5C 616.333,119.167 616.333,111.833 617,104.5C 617.717,103.956 618.217,103.289 618.5,102.5 Z"/></g>
<g><path style="opacity:1" fill="#f0f0f0" d="M 334.5,114.5 C 333.848,115.725 332.681,116.392 331,116.5C 329.319,116.392 328.152,115.725 327.5,114.5C 328.16,110.687 329.326,107.021 331,103.5C 332.674,107.021 333.84,110.687 334.5,114.5 Z"/></g>
<g><path style="opacity:1" fill="#efefef" d="M 138.5,115.5 C 136.052,116.473 133.385,116.806 130.5,116.5C 133.067,100.174 135.733,99.8402 138.5,115.5 Z"/></g>
<g><path style="opacity:1" fill="#9f9f9f" d="M 380.5,91.5 C 380.5,96.8333 380.5,102.167 380.5,107.5C 375.305,107.821 370.305,107.487 365.5,106.5C 370.167,106.5 374.833,106.5 379.5,106.5C 379.179,101.305 379.513,96.3054 380.5,91.5 Z"/></g>
<g><path style="opacity:1" fill="#b4b4b4" d="M 538.5,103.5 C 538.5,105.833 538.5,108.167 538.5,110.5C 544.167,110.5 549.833,110.5 555.5,110.5C 555.5,113.5 555.5,116.5 555.5,119.5C 549.833,119.5 544.167,119.5 538.5,119.5C 543.64,118.512 548.974,118.179 554.5,118.5C 554.5,116.167 554.5,113.833 554.5,111.5C 548.833,111.5 543.167,111.5 537.5,111.5C 537.194,108.615 537.527,105.948 538.5,103.5 Z"/></g>
<g><path style="opacity:1" fill="#bebebe" d="M 928.5,95.5 C 928.5,100.833 928.5,106.167 928.5,111.5C 923.305,111.821 918.305,111.487 913.5,110.5C 918.167,110.5 922.833,110.5 927.5,110.5C 927.179,105.305 927.513,100.305 928.5,95.5 Z"/></g>
<g><path style="opacity:1" fill="#949494" d="M 453.5,99.5 C 453.5,103.5 453.5,107.5 453.5,111.5C 457.833,111.5 462.167,111.5 466.5,111.5C 462.03,112.486 457.363,112.819 452.5,112.5C 452.182,107.968 452.515,103.634 453.5,99.5 Z"/></g>
<g><path style="opacity:1" fill="#9c9c9c" d="M 138.5,115.5 C 139.043,115.56 139.376,115.893 139.5,116.5C 136.355,117.803 133.355,117.803 130.5,116.5C 133.385,116.806 136.052,116.473 138.5,115.5 Z"/></g>
<g><path style="opacity:1" fill="#a8a8a8" d="M 327.5,114.5 C 328.152,115.725 329.319,116.392 331,116.5C 332.681,116.392 333.848,115.725 334.5,114.5C 335.404,115.209 335.737,116.209 335.5,117.5C 332.5,117.5 329.5,117.5 326.5,117.5C 326.263,116.209 326.596,115.209 327.5,114.5 Z"/></g>
<g><path style="opacity:1" fill="#9b9b9b" d="M 470.5,119.5 C 465.025,120.489 459.358,120.822 453.5,120.5C 453.815,124.371 453.482,128.038 452.5,131.5C 452.5,127.5 452.5,123.5 452.5,119.5C 458.5,119.5 464.5,119.5 470.5,119.5 Z"/></g>
<g><path style="opacity:1" fill="#fafafa" d="M 712.5,118.5 C 716.846,118.334 721.179,118.501 725.5,119C 727.744,121.376 728.077,124.043 726.5,127C 721.845,127.499 717.179,127.666 712.5,127.5C 712.5,124.5 712.5,121.5 712.5,118.5 Z"/></g>
<g><path style="opacity:1" fill="#c2c2c2" d="M 38.5,121.5 C 42.1667,121.5 45.8333,121.5 49.5,121.5C 49.5,124.167 49.5,126.833 49.5,129.5C 44.6367,129.819 39.97,129.486 35.5,128.5C 39.8333,128.5 44.1667,128.5 48.5,128.5C 48.5,126.5 48.5,124.5 48.5,122.5C 44.9581,122.813 41.6248,122.479 38.5,121.5 Z"/></g>
<g><path style="opacity:1" fill="#7e7e7e" d="M 65.5,121.5 C 64.4324,122.434 63.099,122.768 61.5,122.5C 61.5,124.5 61.5,126.5 61.5,128.5C 60.5318,126.393 60.1984,124.059 60.5,121.5C 62.1667,121.5 63.8333,121.5 65.5,121.5 Z"/></g>
<g><path style="opacity:1" fill="#7f7f7f" d="M 158.5,123.5 C 156.798,125.8 156.132,128.467 156.5,131.5C 156.167,131.5 155.833,131.5 155.5,131.5C 155.167,130.833 154.833,130.167 154.5,129.5C 155.461,127.735 155.795,125.735 155.5,123.5C 156.5,123.5 157.5,123.5 158.5,123.5 Z"/></g>
<g><path style="opacity:1" fill="#ababab" d="M 684.5,95.5 C 687.962,94.5184 691.629,94.185 695.5,94.5C 695.829,108.344 695.496,122.01 694.5,135.5C 694.5,122.167 694.5,108.833 694.5,95.5C 691.167,95.5 687.833,95.5 684.5,95.5 Z"/></g>
<g><path style="opacity:1" fill="#b0b0b0" d="M 884.5,95.5 C 888.298,94.5166 892.298,94.1832 896.5,94.5C 896.829,108.344 896.496,122.01 895.5,135.5C 895.5,122.167 895.5,108.833 895.5,95.5C 891.833,95.5 888.167,95.5 884.5,95.5 Z"/></g>
<g><path style="opacity:1" fill="#cccccc" d="M 427.5,131.5 C 427.5,131.833 427.5,132.167 427.5,132.5C 420.167,132.5 412.833,132.5 405.5,132.5C 405.737,133.791 405.404,134.791 404.5,135.5C 404.5,134.167 404.5,132.833 404.5,131.5C 412.167,131.5 419.833,131.5 427.5,131.5 Z"/></g>
<g><path style="opacity:1" fill="#858585" d="M 437.5,123.5 C 438.488,128.64 438.821,133.974 438.5,139.5C 434.833,139.5 431.167,139.5 427.5,139.5C 427.5,137.167 427.5,134.833 427.5,132.5C 427.5,132.167 427.5,131.833 427.5,131.5C 428.468,133.607 428.802,135.941 428.5,138.5C 431.5,138.5 434.5,138.5 437.5,138.5C 437.5,133.5 437.5,128.5 437.5,123.5 Z"/></g>
</svg>
